<svg xmlns="http://www.w3.org/2000/svg"
  xmlns:xlink="http://www.w3.org/1999/xlink" width="1000" height="1000" viewBox="0 0 1000 1000">
  <defs>
    <symbol id="a" data-name="1" viewBox="0 0 1000 1000">
      <rect width="1000" height="1000" rx="120.29" fill="#7225d7"/>
      <path d="M683.91,688.12,492.45,871.62,309,680.16c-101.35-105.74-97.78-273.62,8-375h0c105.74-101.35,273.62-97.78,375,8h0C793.22,418.9,789.66,586.78,683.91,688.12Z" fill="#fff"/>
      <rect x="554" y="353.1" width="75.06" height="306.36" rx="35.16" fill="#7225d7"/>
      <path d="M616.72,649.9l-3.69,3a35.15,35.15,0,0,1-49.43-5.41L376.11,413.88a35.15,35.15,0,0,1,5.41-49.43l3.69-3a35.15,35.15,0,0,1,49.43,5.41L622.13,600.47A35.15,35.15,0,0,1,616.72,649.9Z" fill="#7225d7"/>
      <rect x="367.57" y="353.1" width="75.06" height="306.36" rx="35.16" fill="#7225d7"/>
    </symbol>
  </defs>
  <title>IconNgenArtboard 1</title>
  <use width="1000" height="1000" xlink:href="#a"/>
</svg>
