<svg width="22" height="20" viewBox="0 0 22 20" fill="none" xmlns="http://www.w3.org/2000/svg">
<path fill-rule="evenodd" clip-rule="evenodd" d="M9.77147 3.51144H19.5924C20.3685 3.51144 21 4.1723 21 4.98454V17.5269C21 18.3391 20.3685 19 19.5924 19H2.40786C1.63172 19 1 18.3391 1 17.5269V2.47309C1 1.66062 1.63172 1 2.40786 1H6.99993C8.40825 1 9.57692 2.09344 9.77147 3.51144ZM19.5924 18.1626C19.9275 18.1626 20.2001 17.8773 20.2001 17.5269V4.98454C20.2001 4.63411 19.9275 4.34883 19.5924 4.34883H3.79992C3.57882 4.34883 3.40006 4.16128 3.40006 3.93014C3.40006 3.69899 3.57882 3.51144 3.79992 3.51144H8.95962C8.77377 2.55741 7.96582 1.83715 6.99993 1.83715H2.40786C2.07277 1.83715 1.79995 2.12243 1.79995 2.47309V17.5269C1.79995 17.8773 2.07254 18.1626 2.40786 18.1626H19.5924Z" fill="#6A7276"/>
<path d="M9.77147 3.51144L9.37518 3.56581L9.4226 3.91144H9.77147V3.51144ZM8.95962 3.51144V3.91144H9.44507L9.35224 3.43496L8.95962 3.51144ZM19.5924 3.11144H9.77147V3.91144H19.5924V3.11144ZM21.4 4.98454C21.4 3.96872 20.6064 3.11144 19.5924 3.11144V3.91144C20.1307 3.91144 20.6 4.37588 20.6 4.98454H21.4ZM21.4 17.5269V4.98454H20.6V17.5269H21.4ZM19.5924 19.4C20.6064 19.4 21.4 18.5427 21.4 17.5269H20.6C20.6 18.1356 20.1307 18.6 19.5924 18.6V19.4ZM2.40786 19.4H19.5924V18.6H2.40786V19.4ZM0.6 17.5269C0.6 18.5428 1.39394 19.4 2.40786 19.4V18.6C1.86949 18.6 1.4 18.1355 1.4 17.5269H0.6ZM0.6 2.47309V17.5269H1.4V2.47309H0.6ZM2.40786 0.6C1.39399 0.6 0.6 1.4569 0.6 2.47309H1.4C1.4 1.86433 1.86945 1.4 2.40786 1.4V0.6ZM6.99993 0.6H2.40786V1.4H6.99993V0.6ZM10.1678 3.45707C9.94835 1.85791 8.62473 0.6 6.99993 0.6V1.4C8.19176 1.4 9.20549 2.32898 9.37518 3.56581L10.1678 3.45707ZM19.8001 17.5269C19.8001 17.6737 19.6897 17.7626 19.5924 17.7626V18.5626C20.1652 18.5626 20.6001 18.081 20.6001 17.5269H19.8001ZM19.8001 4.98454V17.5269H20.6001V4.98454H19.8001ZM19.5924 4.74883C19.6897 4.74883 19.8001 4.83779 19.8001 4.98454H20.6001C20.6001 4.43043 20.1652 3.94883 19.5924 3.94883V4.74883ZM3.79992 4.74883H19.5924V3.94883H3.79992V4.74883ZM3.00006 3.93014C3.00006 4.36441 3.34053 4.74883 3.79992 4.74883V3.94883C3.80182 3.94883 3.80427 3.94935 3.80616 3.95019C3.80771 3.95087 3.80757 3.95117 3.80644 3.94999C3.80412 3.94756 3.80006 3.9414 3.80006 3.93014H3.00006ZM3.79992 3.11144C3.34053 3.11144 3.00006 3.49587 3.00006 3.93014H3.80006C3.80006 3.91887 3.80412 3.91271 3.80644 3.91028C3.80757 3.9091 3.80771 3.9094 3.80616 3.91009C3.80427 3.91093 3.80182 3.91144 3.79992 3.91144V3.11144ZM8.95962 3.11144H3.79992V3.91144H8.95962V3.11144ZM6.99993 2.23715C7.75802 2.23715 8.41453 2.80523 8.56701 3.58793L9.35224 3.43496C9.13301 2.30958 8.17362 1.43715 6.99993 1.43715V2.23715ZM2.40786 2.23715H6.99993V1.43715H2.40786V2.23715ZM2.19995 2.47309C2.19995 2.32621 2.31044 2.23715 2.40786 2.23715V1.43715C1.83511 1.43715 1.39995 1.91864 1.39995 2.47309H2.19995ZM2.19995 17.5269V2.47309H1.39995V17.5269H2.19995ZM2.40786 17.7626C2.31021 17.7626 2.19995 17.6736 2.19995 17.5269H1.39995C1.39995 18.0811 1.83488 18.5626 2.40786 18.5626V17.7626ZM19.5924 17.7626H2.40786V18.5626H19.5924V17.7626Z" fill="#6A7276"/>
</svg>
