<svg width="22" height="20" viewBox="0 0 22 20" fill="none" xmlns="http://www.w3.org/2000/svg">
<path fill-rule="evenodd" clip-rule="evenodd" d="M14.5353 3.36209L20.1964 1.04339C20.5812 0.885882 21 1.17671 21 1.60045V15.9998C21 16.2452 20.8541 16.4657 20.6317 16.5569L14.7747 18.9558C14.6226 19.0187 14.5122 18.9989 14.4542 18.9884C14.4397 18.9858 14.4285 18.9838 14.4207 18.9838C14.4128 18.9815 14.4079 18.9803 14.4036 18.9793C14.3954 18.9773 14.3893 18.9758 14.3683 18.9686L7.46467 16.6381L1.80355 18.9568C1.42113 19.1133 1 18.8257 1 18.3997V4.00034C1 3.75499 1.14586 3.53436 1.36832 3.44325L7.22768 1.04335C7.3485 0.993837 7.49471 0.985317 7.62874 1.03064L14.5353 3.36209ZM2.17187 17.5135L6.85936 15.5936V2.48661L2.17187 4.40652V17.5135ZM13.9688 17.5702L8.03124 15.5659L8.03128 2.42997L13.9688 4.43428V17.5702ZM15.1406 17.5135L19.8281 15.5936V2.48661L15.1406 4.40652V17.5135Z" fill="#6A7276"/>
<path d="M20.1964 1.04339L20.1396 0.904575L20.1396 0.904587L20.1964 1.04339ZM14.5353 3.36209L14.4873 3.50421L14.5404 3.52211L14.5922 3.5009L14.5353 3.36209ZM21 1.60045H21.15V1.60044L21 1.60045ZM20.6317 16.5569L20.6885 16.6957L20.6885 16.6957L20.6317 16.5569ZM14.7747 18.9558L14.7178 18.817L14.7174 18.8172L14.7747 18.9558ZM14.4542 18.9884L14.4276 19.136H14.4276L14.4542 18.9884ZM14.4207 18.9838L14.3796 19.1281L14.3998 19.1338H14.4207V18.9838ZM14.4036 18.9793L14.4395 18.8336L14.4395 18.8336L14.4036 18.9793ZM14.3683 18.9686L14.417 18.8267L14.4163 18.8264L14.3683 18.9686ZM7.46467 16.6381L7.51265 16.4959L7.45962 16.478L7.40782 16.4992L7.46467 16.6381ZM1.80355 18.9568L1.86039 19.0956L1.86041 19.0956L1.80355 18.9568ZM1.36832 3.44325L1.31147 3.30444L1.36832 3.44325ZM7.22768 1.04335L7.28454 1.18216L7.28457 1.18215L7.22768 1.04335ZM7.62874 1.03064L7.58069 1.17273L7.58076 1.17276L7.62874 1.03064ZM6.85936 15.5936L6.91622 15.7324L7.00936 15.6942V15.5936H6.85936ZM2.17187 17.5135H2.02187V17.737L2.22873 17.6523L2.17187 17.5135ZM6.85936 2.48661H7.00936V2.26308L6.80251 2.3478L6.85936 2.48661ZM2.17187 4.40652L2.11502 4.26772L2.02187 4.30587V4.40652H2.17187ZM8.03124 15.5659H7.88124V15.6735L7.98326 15.708L8.03124 15.5659ZM13.9688 17.5702L13.9208 17.7123L14.1188 17.7791V17.5702H13.9688ZM8.03128 2.42997L8.07925 2.28785L7.88128 2.22102L7.88128 2.42997L8.03128 2.42997ZM13.9688 4.43428H14.1188V4.3266L14.0167 4.29216L13.9688 4.43428ZM19.8281 15.5936L19.8849 15.7324L19.9781 15.6943V15.5936H19.8281ZM15.1406 17.5135H14.9906V17.7371L15.1975 17.6523L15.1406 17.5135ZM19.8281 2.48661H19.9781V2.26308L19.7712 2.3478L19.8281 2.48661ZM15.1406 4.40652L15.0837 4.26772L14.9906 4.30587V4.40652H15.1406ZM20.1396 0.904587L14.4785 3.22328L14.5922 3.5009L20.2533 1.1822L20.1396 0.904587ZM21.15 1.60044C21.15 1.07561 20.6281 0.704591 20.1396 0.904575L20.2532 1.18222C20.5343 1.06717 20.85 1.27781 20.85 1.60046L21.15 1.60044ZM21.15 15.9998V1.60045H20.85V15.9998H21.15ZM20.6885 16.6957C20.9688 16.5809 21.15 16.3044 21.15 15.9998H20.85C20.85 16.1859 20.7394 16.3506 20.5748 16.4181L20.6885 16.6957ZM14.8316 19.0946L20.6885 16.6957L20.5748 16.4181L14.7178 18.817L14.8316 19.0946ZM14.4276 19.136C14.4959 19.1483 14.6404 19.1737 14.832 19.0944L14.7174 18.8172C14.6047 18.8638 14.5285 18.8494 14.4808 18.8408L14.4276 19.136ZM14.4207 19.1338C14.4164 19.1338 14.4135 19.1335 14.4127 19.1335C14.4118 19.1334 14.4117 19.1333 14.4129 19.1335C14.4157 19.1339 14.4197 19.1346 14.4276 19.136L14.4808 18.8408C14.4728 18.8394 14.4453 18.8338 14.4207 18.8338V19.1338ZM14.3676 19.1249C14.3713 19.1258 14.3742 19.1265 14.3796 19.1281L14.4617 18.8395C14.4513 18.8366 14.4444 18.8349 14.4395 18.8336L14.3676 19.1249ZM14.3196 19.1104C14.3446 19.119 14.3549 19.1218 14.3677 19.1249L14.4395 18.8336C14.4357 18.8327 14.435 18.8325 14.4333 18.832C14.431 18.8314 14.4265 18.8299 14.417 18.8267L14.3196 19.1104ZM7.4167 16.7802L14.3204 19.1107L14.4163 18.8264L7.51265 16.4959L7.4167 16.7802ZM1.86041 19.0956L7.52153 16.7769L7.40782 16.4992L1.7467 18.8179L1.86041 19.0956ZM0.85 18.3997C0.85 18.9277 1.37507 19.2943 1.86039 19.0956L1.74671 18.8179C1.46719 18.9324 1.15 18.7236 1.15 18.3997H0.85ZM0.85 4.00034V18.3997H1.15V4.00034H0.85ZM1.31147 3.30444C1.03114 3.41926 0.85 3.69577 0.85 4.00034H1.15C1.15 3.81422 1.26058 3.64947 1.42517 3.58206L1.31147 3.30444ZM7.17083 0.904547L1.31147 3.30444L1.42517 3.58206L7.28454 1.18216L7.17083 0.904547ZM7.67678 0.888539C7.50706 0.831148 7.32359 0.841937 7.1708 0.90456L7.28457 1.18215C7.37341 1.14574 7.48237 1.13949 7.58069 1.17273L7.67678 0.888539ZM14.5833 3.21997L7.67671 0.888515L7.58076 1.17276L14.4873 3.50421L14.5833 3.21997ZM6.80251 15.4548L2.11502 17.3747L2.22873 17.6523L6.91622 15.7324L6.80251 15.4548ZM6.70936 2.48661V15.5936H7.00936V2.48661H6.70936ZM2.22873 4.54533L6.91622 2.62542L6.80251 2.3478L2.11502 4.26772L2.22873 4.54533ZM2.32187 17.5135V4.40652H2.02187V17.5135H2.32187ZM7.98326 15.708L13.9208 17.7123L14.0167 17.4281L8.07921 15.4237L7.98326 15.708ZM7.88128 2.42997L7.88124 15.5659H8.18124L8.18128 2.42997L7.88128 2.42997ZM14.0167 4.29216L8.07925 2.28785L7.9833 2.57209L13.9208 4.5764L14.0167 4.29216ZM14.1188 17.5702V4.43428H13.8188V17.5702H14.1188ZM19.7712 15.4548L15.0837 17.3747L15.1975 17.6523L19.8849 15.7324L19.7712 15.4548ZM19.6781 2.48661V15.5936H19.9781V2.48661H19.6781ZM15.1975 4.54533L19.8849 2.62542L19.7712 2.3478L15.0837 4.26772L15.1975 4.54533ZM15.2906 17.5135V4.40652H14.9906V17.5135H15.2906Z" fill="#6A7276"/>
</svg>
